<svg width="33" height="33" viewBox="0 0 33 33" fill="none" xmlns="http://www.w3.org/2000/svg">
<rect width="32.7273" height="32.7273" rx="6.54545" fill="#A41BE4"/>
<path d="M8.154 13.342V11.102H12.158V21H9.638V13.342H8.154ZM16.4202 13.216C17.2882 13.216 17.9836 13.4447 18.5062 13.902C19.0382 14.35 19.3602 14.9567 19.4722 15.722H18.2542C18.1982 15.2647 18.0069 14.8913 17.6802 14.602C17.3629 14.3033 16.9336 14.154 16.3922 14.154C15.9349 14.154 15.5756 14.266 15.3142 14.49C15.0622 14.7047 14.9362 14.9987 14.9362 15.372C14.9362 15.652 15.0202 15.8807 15.1882 16.058C15.3656 16.226 15.5802 16.3567 15.8322 16.45C16.0936 16.534 16.4482 16.6273 16.8962 16.73C17.4656 16.8607 17.9229 16.996 18.2682 17.136C18.6229 17.2667 18.9216 17.4813 19.1642 17.78C19.4162 18.0787 19.5422 18.48 19.5422 18.984C19.5422 19.6093 19.3042 20.118 18.8282 20.51C18.3616 20.902 17.7362 21.098 16.9522 21.098C16.0376 21.098 15.2909 20.8787 14.7122 20.44C14.1336 20.0013 13.7929 19.39 13.6902 18.606H14.9222C14.9689 19.0727 15.1696 19.4507 15.5242 19.74C15.8882 20.0293 16.3642 20.174 16.9522 20.174C17.3909 20.174 17.7316 20.062 17.9742 19.838C18.2262 19.614 18.3522 19.32 18.3522 18.956C18.3522 18.6573 18.2636 18.4193 18.0862 18.242C17.9089 18.0647 17.6896 17.9293 17.4282 17.836C17.1669 17.7427 16.8076 17.6447 16.3502 17.542C15.7809 17.4113 15.3236 17.2807 14.9782 17.15C14.6422 17.0193 14.3529 16.814 14.1102 16.534C13.8769 16.2447 13.7602 15.8573 13.7602 15.372C13.7602 14.728 13.9982 14.21 14.4742 13.818C14.9502 13.4167 15.5989 13.216 16.4202 13.216ZM24.9127 19.88V21H23.9607C23.1767 21 22.5887 20.8133 22.1967 20.44C21.814 20.0667 21.6227 19.4413 21.6227 18.564V14.42H20.4747V13.314H21.6227V11.396H22.9107V13.314H24.8987V14.42H22.9107V18.592C22.9107 19.0867 22.9993 19.4273 23.1767 19.614C23.3633 19.7913 23.6807 19.88 24.1287 19.88H24.9127Z" fill="white"/>
</svg>
