<svg width="33" height="33" viewBox="0 0 33 33" fill="none" xmlns="http://www.w3.org/2000/svg">
<rect width="32.7273" height="32.7273" rx="6.54545" fill="#FC7B22"/>
<path d="M6.546 20.082C6.86333 19.83 7.008 19.7133 6.98 19.732C7.89467 18.976 8.61333 18.3553 9.136 17.87C9.668 17.3847 10.116 16.876 10.48 16.344C10.844 15.812 11.026 15.294 11.026 14.79C11.026 14.4073 10.9373 14.1087 10.76 13.894C10.5827 13.6793 10.3167 13.572 9.962 13.572C9.60733 13.572 9.32733 13.7073 9.122 13.978C8.926 14.2393 8.828 14.6127 8.828 15.098H6.518C6.53667 14.3047 6.70467 13.642 7.022 13.11C7.34867 12.578 7.77333 12.186 8.296 11.934C8.828 11.682 9.416 11.556 10.06 11.556C11.1707 11.556 12.006 11.8407 12.566 12.41C13.1353 12.9793 13.42 13.7213 13.42 14.636C13.42 15.6347 13.0793 16.5633 12.398 17.422C11.7167 18.2713 10.8487 19.102 9.794 19.914H13.574V21.86H6.546V20.082ZM17.438 16.42C18.1047 16.42 18.6447 16.6233 19.058 17.03C19.4714 17.43 19.678 18.01 19.678 18.77V22H18.778V18.9C18.778 18.3533 18.6414 17.9367 18.368 17.65C18.0947 17.3567 17.7214 17.21 17.248 17.21C16.768 17.21 16.3847 17.36 16.098 17.66C15.818 17.96 15.678 18.3967 15.678 18.97V22H14.768V16.52H15.678V17.3C15.858 17.02 16.1014 16.8033 16.408 16.65C16.7214 16.4967 17.0647 16.42 17.438 16.42ZM20.8245 19.24C20.8245 18.68 20.9379 18.19 21.1645 17.77C21.3912 17.3433 21.7012 17.0133 22.0945 16.78C22.4945 16.5467 22.9412 16.43 23.4345 16.43C23.8612 16.43 24.2579 16.53 24.6245 16.73C24.9912 16.9233 25.2712 17.18 25.4645 17.5V14.6H26.3845V22H25.4645V20.97C25.2845 21.2967 25.0179 21.5667 24.6645 21.78C24.3112 21.9867 23.8979 22.09 23.4245 22.09C22.9379 22.09 22.4945 21.97 22.0945 21.73C21.7012 21.49 21.3912 21.1533 21.1645 20.72C20.9379 20.2867 20.8245 19.7933 20.8245 19.24ZM25.4645 19.25C25.4645 18.8367 25.3812 18.4767 25.2145 18.17C25.0479 17.8633 24.8212 17.63 24.5345 17.47C24.2545 17.3033 23.9445 17.22 23.6045 17.22C23.2645 17.22 22.9545 17.3 22.6745 17.46C22.3945 17.62 22.1712 17.8533 22.0045 18.16C21.8379 18.4667 21.7545 18.8267 21.7545 19.24C21.7545 19.66 21.8379 20.0267 22.0045 20.34C22.1712 20.6467 22.3945 20.8833 22.6745 21.05C22.9545 21.21 23.2645 21.29 23.6045 21.29C23.9445 21.29 24.2545 21.21 24.5345 21.05C24.8212 20.8833 25.0479 20.6467 25.2145 20.34C25.3812 20.0267 25.4645 19.6633 25.4645 19.25Z" fill="white"/>
</svg>
