<svg width="33" height="33" viewBox="0 0 33 33" fill="none" xmlns="http://www.w3.org/2000/svg">
<rect width="32.7273" height="32.7273" rx="6.54545" fill="#FC257E"/>
<path d="M10.228 11.668C10.9187 11.668 11.5113 11.7893 12.006 12.032C12.5007 12.2653 12.874 12.592 13.126 13.012C13.3873 13.4227 13.518 13.8893 13.518 14.412C13.518 15.056 13.35 15.574 13.014 15.966C12.6873 16.358 12.2767 16.6053 11.782 16.708V16.778C13.0607 17.1887 13.7 17.9867 13.7 19.172C13.7 19.7413 13.5693 20.25 13.308 20.698C13.0467 21.1367 12.664 21.482 12.16 21.734C11.6653 21.9767 11.068 22.098 10.368 22.098C9.22933 22.098 8.324 21.818 7.652 21.258C6.98933 20.698 6.63 19.844 6.574 18.696H8.912C8.93067 19.1347 9.052 19.48 9.276 19.732C9.5 19.984 9.82667 20.11 10.256 20.11C10.6013 20.11 10.872 20.0073 11.068 19.802C11.2733 19.5967 11.376 19.3307 11.376 19.004C11.376 18.192 10.788 17.786 9.612 17.786H9.164V15.84H9.598C10.6527 15.8587 11.18 15.4807 11.18 14.706C11.18 14.37 11.0867 14.1133 10.9 13.936C10.7227 13.7493 10.48 13.656 10.172 13.656C9.836 13.656 9.57 13.7727 9.374 14.006C9.178 14.23 9.066 14.5333 9.038 14.916H6.7C6.74667 13.8707 7.07333 13.068 7.68 12.508C8.28667 11.948 9.136 11.668 10.228 11.668ZM16.1166 17.62C16.2966 17.24 16.5599 16.9467 16.9066 16.74C17.2532 16.5267 17.6666 16.42 18.1466 16.42V17.41H17.8666C17.3532 17.41 16.9332 17.5433 16.6066 17.81C16.2799 18.07 16.1166 18.5033 16.1166 19.11V22H15.2066V16.51H16.1166V17.62ZM21.2945 16.44C21.8278 16.44 22.2778 16.5733 22.6445 16.84C23.0178 17.1067 23.2778 17.4633 23.4245 17.91V14.6H24.3345V22H23.4245V20.6C23.2778 21.0467 23.0178 21.4033 22.6445 21.67C22.2778 21.9367 21.8278 22.07 21.2945 22.07C20.8078 22.07 20.3745 21.9567 19.9945 21.73C19.6145 21.5033 19.3145 21.18 19.0945 20.76C18.8811 20.3333 18.7745 19.8333 18.7745 19.26C18.7745 18.6867 18.8811 18.1867 19.0945 17.76C19.3145 17.3333 19.6145 17.0067 19.9945 16.78C20.3745 16.5533 20.8078 16.44 21.2945 16.44ZM21.5545 17.25C20.9945 17.25 20.5445 17.43 20.2045 17.79C19.8711 18.1433 19.7045 18.6333 19.7045 19.26C19.7045 19.8867 19.8711 20.38 20.2045 20.74C20.5445 21.0933 20.9945 21.27 21.5545 21.27C21.9145 21.27 22.2345 21.1867 22.5145 21.02C22.8011 20.8533 23.0245 20.62 23.1845 20.32C23.3445 20.0133 23.4245 19.66 23.4245 19.26C23.4245 18.86 23.3445 18.5067 23.1845 18.2C23.0245 17.8933 22.8011 17.66 22.5145 17.5C22.2345 17.3333 21.9145 17.25 21.5545 17.25Z" fill="white"/>
</svg>
