<svg width="363" height="177" viewBox="0 0 363 177" fill="none" xmlns="http://www.w3.org/2000/svg">
<g clip-path="url(#clip0)">
<rect width="363" height="177" rx="12" fill="#A41BE4"/>
<path d="M140.82 8.85C148.593 8.85 154.79 10.7933 159.41 14.68C164.103 18.5667 167.037 23.7 168.21 30.08H150.61C150.097 27.5867 148.923 25.6433 147.09 24.25C145.33 22.7833 143.093 22.05 140.38 22.05C138.253 22.05 136.64 22.5267 135.54 23.48C134.44 24.36 133.89 25.6433 133.89 27.33C133.89 29.2367 134.88 30.6667 136.86 31.62C138.913 32.5733 142.103 33.5267 146.43 34.48C151.123 35.58 154.973 36.7167 157.98 37.89C160.987 38.99 163.59 40.8233 165.79 43.39C167.99 45.9567 169.09 49.4033 169.09 53.73C169.09 57.25 168.137 60.3667 166.23 63.08C164.323 65.7933 161.573 67.92 157.98 69.46C154.387 71 150.133 71.77 145.22 71.77C136.933 71.77 130.297 69.9367 125.31 66.27C120.323 62.6033 117.28 57.36 116.18 50.54H134.33C134.623 53.18 135.723 55.1967 137.63 56.59C139.61 57.9833 142.14 58.68 145.22 58.68C147.347 58.68 148.96 58.2033 150.06 57.25C151.16 56.2233 151.71 54.9033 151.71 53.29C151.71 51.1633 150.683 49.66 148.63 48.78C146.65 47.8267 143.387 46.8367 138.84 45.81C134.293 44.8567 130.553 43.83 127.62 42.73C124.687 41.63 122.157 39.87 120.03 37.45C117.903 34.9567 116.84 31.5833 116.84 27.33C116.84 21.83 118.93 17.3933 123.11 14.02C127.29 10.5733 133.193 8.85 140.82 8.85ZM209.866 8.85C215.952 8.85 221.379 10.1333 226.146 12.7C230.986 15.1933 234.762 18.8233 237.476 23.59C240.262 28.3567 241.656 33.93 241.656 40.31C241.656 46.69 240.262 52.2633 237.476 57.03C234.762 61.7967 230.986 65.4633 226.146 68.03C221.379 70.5233 215.952 71.77 209.866 71.77C203.779 71.77 198.316 70.5233 193.476 68.03C188.636 65.4633 184.822 61.7967 182.036 57.03C179.322 52.2633 177.966 46.69 177.966 40.31C177.966 33.93 179.322 28.3567 182.036 23.59C184.822 18.8233 188.636 15.1933 193.476 12.7C198.316 10.1333 203.779 8.85 209.866 8.85ZM209.866 25.13C206.272 25.13 203.229 26.45 200.736 29.09C198.316 31.6567 197.106 35.3967 197.106 40.31C197.106 45.2233 198.316 48.9633 200.736 51.53C203.229 54.0967 206.272 55.38 209.866 55.38C213.459 55.38 216.466 54.0967 218.886 51.53C221.306 48.9633 222.516 45.2233 222.516 40.31C222.516 35.3967 221.306 31.6567 218.886 29.09C216.466 26.45 213.459 25.13 209.866 25.13ZM280.78 8.85C288.7 8.85 295.336 11.05 300.69 15.45C306.043 19.7767 309.416 25.7533 310.81 33.38H290.9C290.313 30.74 289.103 28.6867 287.27 27.22C285.436 25.7533 283.126 25.02 280.34 25.02C277.04 25.02 274.326 26.34 272.2 28.98C270.073 31.5467 269.01 35.3233 269.01 40.31C269.01 45.2967 270.073 49.11 272.2 51.75C274.326 54.3167 277.04 55.6 280.34 55.6C283.126 55.6 285.436 54.8667 287.27 53.4C289.103 51.9333 290.313 49.88 290.9 47.24H310.81C309.416 54.8667 306.043 60.88 300.69 65.28C295.336 69.6067 288.7 71.77 280.78 71.77C274.766 71.77 269.413 70.5233 264.72 68.03C260.1 65.4633 256.47 61.7967 253.83 57.03C251.19 52.2633 249.87 46.69 249.87 40.31C249.87 33.8567 251.153 28.2833 253.72 23.59C256.36 18.8233 260.026 15.1933 264.72 12.7C269.413 10.1333 274.766 8.85 280.78 8.85ZM320.518 -7.65C320.518 -10.51 321.545 -12.8567 323.598 -14.69C325.651 -16.5967 328.365 -17.55 331.738 -17.55C335.111 -17.55 337.825 -16.5967 339.878 -14.69C341.931 -12.8567 342.958 -10.51 342.958 -7.65C342.958 -4.86334 341.931 -2.51667 339.878 -0.610003C337.825 1.22333 335.111 2.13999 331.738 2.13999C328.365 2.13999 325.651 1.22333 323.598 -0.610003C321.545 -2.51667 320.518 -4.86334 320.518 -7.65ZM341.088 9.62V71H322.278V9.62H341.088ZM384.435 8.85C390.521 8.85 395.948 10.1333 400.715 12.7C405.555 15.1933 409.331 18.8233 412.045 23.59C414.831 28.3567 416.225 33.93 416.225 40.31C416.225 46.69 414.831 52.2633 412.045 57.03C409.331 61.7967 405.555 65.4633 400.715 68.03C395.948 70.5233 390.521 71.77 384.435 71.77C378.348 71.77 372.885 70.5233 368.045 68.03C363.205 65.4633 359.391 61.7967 356.605 57.03C353.891 52.2633 352.535 46.69 352.535 40.31C352.535 33.93 353.891 28.3567 356.605 23.59C359.391 18.8233 363.205 15.1933 368.045 12.7C372.885 10.1333 378.348 8.85 384.435 8.85ZM384.435 25.13C380.841 25.13 377.798 26.45 375.305 29.09C372.885 31.6567 371.675 35.3967 371.675 40.31C371.675 45.2233 372.885 48.9633 375.305 51.53C377.798 54.0967 380.841 55.38 384.435 55.38C388.028 55.38 391.035 54.0967 393.455 51.53C395.875 48.9633 397.085 45.2233 397.085 40.31C397.085 35.3967 395.875 31.6567 393.455 29.09C391.035 26.45 388.028 25.13 384.435 25.13ZM146.21 108.85C154.13 108.85 160.767 111.05 166.12 115.45C171.473 119.777 174.847 125.753 176.24 133.38H156.33C155.743 130.74 154.533 128.687 152.7 127.22C150.867 125.753 148.557 125.02 145.77 125.02C142.47 125.02 139.757 126.34 137.63 128.98C135.503 131.547 134.44 135.323 134.44 140.31C134.44 145.297 135.503 149.11 137.63 151.75C139.757 154.317 142.47 155.6 145.77 155.6C148.557 155.6 150.867 154.867 152.7 153.4C154.533 151.933 155.743 149.88 156.33 147.24H176.24C174.847 154.867 171.473 160.88 166.12 165.28C160.767 169.607 154.13 171.77 146.21 171.77C140.197 171.77 134.843 170.523 130.15 168.03C125.53 165.463 121.9 161.797 119.26 157.03C116.62 152.263 115.3 146.69 115.3 140.31C115.3 133.857 116.583 128.283 119.15 123.59C121.79 118.823 125.457 115.193 130.15 112.7C134.843 110.133 140.197 108.85 146.21 108.85ZM204.868 121.17C207.215 117.43 210.222 114.46 213.888 112.26C217.628 110.06 221.662 108.96 225.988 108.96V129.09H220.598C215.612 129.09 211.725 130.153 208.938 132.28C206.225 134.407 204.868 138 204.868 143.06V171H186.058V109.62H204.868V121.17ZM292.161 138.66C292.161 140.2 291.978 141.887 291.611 143.72H249.041C249.261 148.34 250.434 151.677 252.561 153.73C254.688 155.71 257.401 156.7 260.701 156.7C263.488 156.7 265.798 156.003 267.631 154.61C269.464 153.217 270.674 151.42 271.261 149.22H291.171C290.364 153.547 288.604 157.433 285.891 160.88C283.178 164.253 279.731 166.93 275.551 168.91C271.371 170.817 266.714 171.77 261.581 171.77C255.568 171.77 250.214 170.523 245.521 168.03C240.901 165.463 237.271 161.797 234.631 157.03C231.991 152.263 230.671 146.69 230.671 140.31C230.671 133.857 231.954 128.283 234.521 123.59C237.161 118.823 240.828 115.193 245.521 112.7C250.214 110.133 255.568 108.85 261.581 108.85C267.668 108.85 273.021 110.097 277.641 112.59C282.261 115.083 285.818 118.603 288.311 123.15C290.878 127.623 292.161 132.793 292.161 138.66ZM273.131 135.8C273.204 131.767 272.104 128.76 269.831 126.78C267.631 124.727 264.881 123.7 261.581 123.7C258.134 123.7 255.274 124.727 253.001 126.78C250.728 128.833 249.444 131.84 249.151 135.8H273.131ZM325.287 108.85C329.98 108.85 334.013 109.913 337.387 112.04C340.76 114.167 343.217 117.063 344.757 120.73V89.6H363.567V171H344.757V159.89C343.217 163.557 340.76 166.453 337.387 168.58C334.013 170.707 329.98 171.77 325.287 171.77C320.227 171.77 315.68 170.523 311.647 168.03C307.687 165.463 304.533 161.797 302.187 157.03C299.913 152.263 298.777 146.69 298.777 140.31C298.777 133.857 299.913 128.283 302.187 123.59C304.533 118.823 307.687 115.193 311.647 112.7C315.68 110.133 320.227 108.85 325.287 108.85ZM331.337 125.35C327.303 125.35 324.04 126.67 321.547 129.31C319.127 131.95 317.917 135.617 317.917 140.31C317.917 145.003 319.127 148.67 321.547 151.31C324.04 153.95 327.303 155.27 331.337 155.27C335.297 155.27 338.523 153.913 341.017 151.2C343.583 148.487 344.867 144.857 344.867 140.31C344.867 135.69 343.583 132.06 341.017 129.42C338.523 126.707 335.297 125.35 331.337 125.35ZM393.127 155.27H421.507V171H372.557V156.15L398.957 125.24H372.997V109.62H420.407V124.47L393.127 155.27Z" fill="#4E1569" fill-opacity="0.13"/>
</g>
<defs>
<clipPath id="clip0">
<rect width="363" height="177" rx="12" fill="white"/>
</clipPath>
</defs>
</svg>
