<svg width="39" height="54" viewBox="0 0 39 54" fill="none" xmlns="http://www.w3.org/2000/svg">
<path d="M4.95402 46.36C5.38069 46.4467 5.72069 46.65 5.97402 46.97C6.23402 47.2833 6.36402 47.6533 6.36402 48.08C6.36402 48.6733 6.16402 49.1433 5.76402 49.49C5.37069 49.83 4.79736 50 4.04402 50H1.01402V42.94H3.98402C4.69736 42.94 5.24402 43.0967 5.62402 43.41C6.01069 43.7233 6.20402 44.1633 6.20402 44.73C6.20402 45.17 6.08736 45.53 5.85402 45.81C5.62736 46.09 5.32736 46.2733 4.95402 46.36ZM2.42402 45.9H3.69402C4.04736 45.9 4.31402 45.8233 4.49402 45.67C4.68069 45.51 4.77402 45.2833 4.77402 44.99C4.77402 44.6967 4.68402 44.47 4.50402 44.31C4.32402 44.15 4.04736 44.07 3.67402 44.07H2.42402V45.9ZM3.76402 48.85C4.13736 48.85 4.42402 48.77 4.62402 48.61C4.82402 48.4433 4.92402 48.2033 4.92402 47.89C4.92402 47.5767 4.82069 47.3367 4.61402 47.17C4.41402 46.9967 4.12736 46.91 3.75402 46.91H2.42402V48.85H3.76402ZM8.76191 42.6V50H7.35191V42.6H8.76191ZM12.2075 44.39C12.6741 44.39 13.0741 44.5 13.4075 44.72C13.7408 44.94 13.9775 45.2367 14.1175 45.61V44.46H15.5175V50H14.1175V48.84C13.9775 49.2133 13.7408 49.5133 13.4075 49.74C13.0741 49.96 12.6741 50.07 12.2075 50.07C11.7408 50.07 11.3208 49.9567 10.9475 49.73C10.5741 49.5033 10.2808 49.1767 10.0675 48.75C9.86079 48.3167 9.75746 47.81 9.75746 47.23C9.75746 46.65 9.86079 46.1467 10.0675 45.72C10.2808 45.2867 10.5741 44.9567 10.9475 44.73C11.3208 44.5033 11.7408 44.39 12.2075 44.39ZM12.6475 45.62C12.2075 45.62 11.8541 45.7633 11.5875 46.05C11.3208 46.3367 11.1875 46.73 11.1875 47.23C11.1875 47.73 11.3208 48.1233 11.5875 48.41C11.8541 48.69 12.2075 48.83 12.6475 48.83C13.0741 48.83 13.4241 48.6867 13.6975 48.4C13.9775 48.1067 14.1175 47.7167 14.1175 47.23C14.1175 46.7367 13.9775 46.3467 13.6975 46.06C13.4241 45.7667 13.0741 45.62 12.6475 45.62ZM20.0953 44.38C20.7353 44.38 21.2453 44.59 21.6253 45.01C22.0053 45.43 22.1953 46.02 22.1953 46.78V50H20.7953V46.94C20.7953 46.5 20.6819 46.16 20.4553 45.92C20.2286 45.6733 19.9186 45.55 19.5253 45.55C19.1253 45.55 18.8053 45.68 18.5653 45.94C18.3253 46.2 18.2053 46.5733 18.2053 47.06V50H16.7953V44.46H18.2053V45.57C18.3519 45.1967 18.5919 44.9067 18.9253 44.7C19.2653 44.4867 19.6553 44.38 20.0953 44.38ZM26.6759 50L24.8459 47.58V50H23.4359V42.6H24.8459V46.76L26.6659 44.46H28.3359L26.0059 47.22L28.3959 50H26.6759ZM34.2904 47.02C34.2904 47.16 34.2738 47.32 34.2404 47.5H30.1804C30.2004 47.9933 30.3338 48.3567 30.5804 48.59C30.8271 48.8233 31.1338 48.94 31.5004 48.94C31.8271 48.94 32.0971 48.86 32.3104 48.7C32.5304 48.54 32.6704 48.3233 32.7304 48.05H34.2204C34.1471 48.4367 33.9904 48.7833 33.7504 49.09C33.5104 49.3967 33.2004 49.6367 32.8204 49.81C32.4471 49.9833 32.0304 50.07 31.5704 50.07C31.0304 50.07 30.5504 49.9567 30.1304 49.73C29.7104 49.4967 29.3838 49.1667 29.1504 48.74C28.9171 48.3133 28.8004 47.81 28.8004 47.23C28.8004 46.65 28.9171 46.1467 29.1504 45.72C29.3838 45.2867 29.7104 44.9567 30.1304 44.73C30.5504 44.5033 31.0304 44.39 31.5704 44.39C32.1171 44.39 32.5938 44.5033 33.0004 44.73C33.4138 44.9567 33.7304 45.27 33.9504 45.67C34.1771 46.0633 34.2904 46.5133 34.2904 47.02ZM32.8704 46.88C32.8904 46.4267 32.7704 46.0833 32.5104 45.85C32.2571 45.6167 31.9438 45.5 31.5704 45.5C31.1904 45.5 30.8704 45.6167 30.6104 45.85C30.3504 46.0833 30.2071 46.4267 30.1804 46.88H32.8704ZM38.2514 48.79V50H37.5114C36.8914 50 36.4147 49.85 36.0814 49.55C35.7547 49.25 35.5914 48.75 35.5914 48.05V45.65H34.8214V44.46H35.5914V43.09H37.0014V44.46H38.2414V45.65H37.0014V48.07C37.0014 48.3367 37.0547 48.5233 37.1614 48.63C37.268 48.7367 37.448 48.79 37.7014 48.79H38.2514Z" fill="black"/>
<path d="M30.2 0H12C8.1402 0 5 3.1402 5 7V21C5 24.8598 8.1402 28 12 28H28.8C31.1156 28 33 26.1156 33 23.8C33 21.4844 31.1156 19.6 28.8 19.6H10.6V22.4H28.8C29.1713 22.4 29.5274 22.5475 29.7899 22.81C30.0525 23.0726 30.2 23.4287 30.2 23.8C30.2 24.1713 30.0525 24.5274 29.7899 24.7899C29.5274 25.0525 29.1713 25.2 28.8 25.2H12C9.6844 25.2 7.8 23.3156 7.8 21C7.8 18.6844 9.6844 16.8 12 16.8H30.2C31.7442 16.8 33 15.5442 33 14V2.8C33 1.2558 31.7442 0 30.2 0ZM7.8 15.4H7.8042L7.8 15.4028V15.4Z" fill="#F78D1D"/>
</svg>
