<svg width="57" height="58" viewBox="0 0 57 58" fill="none" xmlns="http://www.w3.org/2000/svg">
<path d="M4.58 50.36C5.00667 50.4467 5.34667 50.65 5.6 50.97C5.86 51.2833 5.99 51.6533 5.99 52.08C5.99 52.6733 5.79 53.1433 5.39 53.49C4.99667 53.83 4.42333 54 3.67 54H0.64V46.94H3.61C4.32333 46.94 4.87 47.0967 5.25 47.41C5.63667 47.7233 5.83 48.1633 5.83 48.73C5.83 49.17 5.71333 49.53 5.48 49.81C5.25333 50.09 4.95333 50.2733 4.58 50.36ZM2.05 49.9H3.32C3.67333 49.9 3.94 49.8233 4.12 49.67C4.30667 49.51 4.4 49.2833 4.4 48.99C4.4 48.6967 4.31 48.47 4.13 48.31C3.95 48.15 3.67333 48.07 3.3 48.07H2.05V49.9ZM3.39 52.85C3.76333 52.85 4.05 52.77 4.25 52.61C4.45 52.4433 4.55 52.2033 4.55 51.89C4.55 51.5767 4.44667 51.3367 4.24 51.17C4.04 50.9967 3.75333 50.91 3.38 50.91H2.05V52.85H3.39ZM12.2779 48.46V54H10.8679V52.88C10.7212 53.2533 10.4779 53.5467 10.1379 53.76C9.80456 53.9667 9.41789 54.07 8.97789 54.07C8.33789 54.07 7.82789 53.86 7.44789 53.44C7.06789 53.02 6.87789 52.4333 6.87789 51.68V48.46H8.27789V51.52C8.27789 51.96 8.39122 52.3033 8.61789 52.55C8.84456 52.79 9.15122 52.91 9.53789 52.91C9.94456 52.91 10.2679 52.78 10.5079 52.52C10.7479 52.26 10.8679 51.8867 10.8679 51.4V48.46H12.2779ZM14.5099 48.46L16.0199 52.22L17.4199 48.46H18.9699L15.5799 56.64H14.0199L15.2699 53.84L12.9399 48.46H14.5099ZM23.9819 48.39C24.4485 48.39 24.8485 48.5 25.1819 48.72C25.5152 48.94 25.7519 49.2367 25.8919 49.61V48.46H27.2919V54H25.8919V52.84C25.7519 53.2133 25.5152 53.5133 25.1819 53.74C24.8485 53.96 24.4485 54.07 23.9819 54.07C23.5152 54.07 23.0952 53.9567 22.7219 53.73C22.3485 53.5033 22.0552 53.1767 21.8419 52.75C21.6352 52.3167 21.5319 51.81 21.5319 51.23C21.5319 50.65 21.6352 50.1467 21.8419 49.72C22.0552 49.2867 22.3485 48.9567 22.7219 48.73C23.0952 48.5033 23.5152 48.39 23.9819 48.39ZM24.4219 49.62C23.9819 49.62 23.6285 49.7633 23.3619 50.05C23.0952 50.3367 22.9619 50.73 22.9619 51.23C22.9619 51.73 23.0952 52.1233 23.3619 52.41C23.6285 52.69 23.9819 52.83 24.4219 52.83C24.8485 52.83 25.1985 52.6867 25.4719 52.4C25.7519 52.1067 25.8919 51.7167 25.8919 51.23C25.8919 50.7367 25.7519 50.3467 25.4719 50.06C25.1985 49.7667 24.8485 49.62 24.4219 49.62ZM37.7974 48.38C38.4708 48.38 39.0008 48.59 39.3874 49.01C39.7808 49.4233 39.9774 50.0133 39.9774 50.78V54H38.5774V50.94C38.5774 50.5133 38.4674 50.1867 38.2474 49.96C38.0341 49.7267 37.7374 49.61 37.3574 49.61C36.9641 49.61 36.6508 49.7333 36.4174 49.98C36.1841 50.2267 36.0674 50.5867 36.0674 51.06V54H34.6674V50.94C34.6674 50.5133 34.5574 50.1867 34.3374 49.96C34.1241 49.7267 33.8274 49.61 33.4474 49.61C33.0541 49.61 32.7408 49.7333 32.5074 49.98C32.2741 50.2267 32.1574 50.5867 32.1574 51.06V54H30.7474V48.46H32.1574V49.51C32.3041 49.15 32.5341 48.8733 32.8474 48.68C33.1674 48.48 33.5374 48.38 33.9574 48.38C34.4041 48.38 34.7908 48.4867 35.1174 48.7C35.4508 48.9133 35.7008 49.22 35.8674 49.62C36.0408 49.24 36.2974 48.94 36.6374 48.72C36.9841 48.4933 37.3708 48.38 37.7974 48.38ZM46.4262 51.02C46.4262 51.16 46.4095 51.32 46.3762 51.5H42.3162C42.3362 51.9933 42.4695 52.3567 42.7162 52.59C42.9628 52.8233 43.2695 52.94 43.6362 52.94C43.9628 52.94 44.2328 52.86 44.4462 52.7C44.6662 52.54 44.8062 52.3233 44.8662 52.05H46.3562C46.2828 52.4367 46.1262 52.7833 45.8862 53.09C45.6462 53.3967 45.3362 53.6367 44.9562 53.81C44.5828 53.9833 44.1662 54.07 43.7062 54.07C43.1662 54.07 42.6862 53.9567 42.2662 53.73C41.8462 53.4967 41.5195 53.1667 41.2862 52.74C41.0528 52.3133 40.9362 51.81 40.9362 51.23C40.9362 50.65 41.0528 50.1467 41.2862 49.72C41.5195 49.2867 41.8462 48.9567 42.2662 48.73C42.6862 48.5033 43.1662 48.39 43.7062 48.39C44.2528 48.39 44.7295 48.5033 45.1362 48.73C45.5495 48.9567 45.8662 49.27 46.0862 49.67C46.3128 50.0633 46.4262 50.5133 46.4262 51.02ZM45.0062 50.88C45.0262 50.4267 44.9062 50.0833 44.6462 49.85C44.3928 49.6167 44.0795 49.5 43.7062 49.5C43.3262 49.5 43.0062 49.6167 42.7462 49.85C42.4862 50.0833 42.3428 50.4267 42.3162 50.88H45.0062ZM49.5971 48.39C50.0638 48.39 50.4638 48.5 50.7971 48.72C51.1304 48.94 51.3671 49.2367 51.5071 49.61V48.46H52.9071V54H51.5071V52.84C51.3671 53.2133 51.1304 53.5133 50.7971 53.74C50.4638 53.96 50.0638 54.07 49.5971 54.07C49.1304 54.07 48.7104 53.9567 48.3371 53.73C47.9638 53.5033 47.6704 53.1767 47.4571 52.75C47.2504 52.3167 47.1471 51.81 47.1471 51.23C47.1471 50.65 47.2504 50.1467 47.4571 49.72C47.6704 49.2867 47.9638 48.9567 48.3371 48.73C48.7104 48.5033 49.1304 48.39 49.5971 48.39ZM50.0371 49.62C49.5971 49.62 49.2438 49.7633 48.9771 50.05C48.7104 50.3367 48.5771 50.73 48.5771 51.23C48.5771 51.73 48.7104 52.1233 48.9771 52.41C49.2438 52.69 49.5971 52.83 50.0371 52.83C50.4638 52.83 50.8138 52.6867 51.0871 52.4C51.3671 52.1067 51.5071 51.7167 51.5071 51.23C51.5071 50.7367 51.3671 50.3467 51.0871 50.06C50.8138 49.7667 50.4638 49.62 50.0371 49.62ZM55.5949 46.6V54H54.1849V46.6H55.5949Z" fill="black"/>
<path d="M10.5833 34.8016C10.5833 35.6883 11.2958 36.4008 12.1825 36.4008H32.75C33.6366 36.4008 34.3491 35.6883 34.3491 34.8016V33.25H10.5833V34.8016ZM22.4583 14.2341C16.5208 14.2341 10.5833 17.4166 10.5833 23.75H34.3333C34.3333 17.4166 28.3958 14.2341 22.4583 14.2341ZM14.7316 20.5833C16.4891 18.1291 20.2258 17.4008 22.4583 17.4008C24.6908 17.4008 28.4275 18.1291 30.185 20.5833H14.7316ZM10.5833 26.9166H34.3333V30.0833H10.5833V26.9166ZM37.5 7.91665V1.58331H34.3333V7.91665H26.4166L26.7808 11.0833H41.9175L39.7008 33.25H37.5V36.4166H40.2233C41.5533 36.4166 42.6458 35.3875 42.8041 34.0891L45.4166 7.91665H37.5Z" fill="#F78D1D"/>
</svg>
