<svg width="52" height="54" viewBox="0 0 52 54" fill="none" xmlns="http://www.w3.org/2000/svg">
<path d="M13.25 11.3333V26.9166C13.25 30.0347 15.7915 31.1666 17.5 31.1666H38.75V28.3333H17.517C16.8625 28.3163 16.0833 28.0585 16.0833 26.9166C16.0833 25.7748 16.8625 25.517 17.517 25.5H38.75V5.66665C38.75 4.10406 37.4792 2.83331 35.9167 2.83331H17.5C15.7915 2.83331 13.25 3.96523 13.25 7.08331V11.3333ZM17.5 5.66665H35.9167V22.6666H16.0833V7.08331C16.0833 5.94148 16.8625 5.68365 17.5 5.66665Z" fill="#FC257E"/>
<path d="M25.9958 19.8333L30.7416 15.1739C31.0342 14.8925 31.267 14.5549 31.426 14.1813C31.585 13.8078 31.667 13.406 31.667 13C31.667 12.594 31.585 12.1922 31.426 11.8187C31.267 11.4452 31.0342 11.1076 30.7416 10.8261C30.1517 10.2439 29.3562 9.91743 28.5274 9.91743C27.6985 9.91743 26.903 10.2439 26.3131 10.8261L25.9958 11.135L25.6785 10.8247C25.0888 10.2426 24.2935 9.91614 23.4649 9.91614C22.6363 9.91614 21.841 10.2426 21.2514 10.8247C20.9588 11.1061 20.726 11.4437 20.567 11.8173C20.408 12.1908 20.326 12.5926 20.326 12.9986C20.326 13.4046 20.408 13.8064 20.567 14.1799C20.726 14.5535 20.9588 14.8911 21.2514 15.1725L25.9958 19.8333Z" fill="#FC257E"/>
<path d="M2.05 44.06V45.89H4.55V46.97H2.05V48.87H4.85V50H0.64V42.94H4.85V44.06H2.05ZM8.06391 44.39C8.53057 44.39 8.92724 44.5 9.25391 44.72C9.58724 44.94 9.82724 45.2367 9.97391 45.61V42.6H11.3739V50H9.97391V48.84C9.82724 49.2133 9.58724 49.5133 9.25391 49.74C8.92724 49.96 8.53057 50.07 8.06391 50.07C7.59724 50.07 7.17724 49.9567 6.80391 49.73C6.43057 49.5033 6.13724 49.1767 5.92391 48.75C5.71724 48.3167 5.61391 47.81 5.61391 47.23C5.61391 46.65 5.71724 46.1467 5.92391 45.72C6.13724 45.2867 6.43057 44.9567 6.80391 44.73C7.17724 44.5033 7.59724 44.39 8.06391 44.39ZM8.50391 45.62C8.06391 45.62 7.71057 45.7633 7.44391 46.05C7.17724 46.3367 7.04391 46.73 7.04391 47.23C7.04391 47.73 7.17724 48.1233 7.44391 48.41C7.71057 48.69 8.06391 48.83 8.50391 48.83C8.93057 48.83 9.28057 48.6867 9.55391 48.4C9.83391 48.1067 9.97391 47.7167 9.97391 47.23C9.97391 46.7367 9.83391 46.3467 9.55391 46.06C9.28057 45.7667 8.93057 45.62 8.50391 45.62ZM17.9517 44.46V50H16.5417V48.88C16.3951 49.2533 16.1517 49.5467 15.8117 49.76C15.4784 49.9667 15.0917 50.07 14.6517 50.07C14.0117 50.07 13.5017 49.86 13.1217 49.44C12.7417 49.02 12.5517 48.4333 12.5517 47.68V44.46H13.9517V47.52C13.9517 47.96 14.0651 48.3033 14.2917 48.55C14.5184 48.79 14.8251 48.91 15.2117 48.91C15.6184 48.91 15.9417 48.78 16.1817 48.52C16.4217 48.26 16.5417 47.8867 16.5417 47.4V44.46H17.9517ZM21.7238 44.39C22.4371 44.39 23.0304 44.5833 23.5038 44.97C23.9838 45.3567 24.2838 45.8833 24.4038 46.55H22.9138C22.8538 46.2567 22.7171 46.0267 22.5038 45.86C22.2904 45.6867 22.0204 45.6 21.6938 45.6C21.3204 45.6 21.0071 45.74 20.7538 46.02C20.5071 46.2933 20.3838 46.6967 20.3838 47.23C20.3838 47.7633 20.5071 48.17 20.7538 48.45C21.0071 48.7233 21.3204 48.86 21.6938 48.86C22.0204 48.86 22.2904 48.7767 22.5038 48.61C22.7171 48.4367 22.8538 48.2033 22.9138 47.91H24.4038C24.2838 48.5767 23.9838 49.1033 23.5038 49.49C23.0304 49.8767 22.4371 50.07 21.7238 50.07C21.1838 50.07 20.7038 49.9567 20.2838 49.73C19.8638 49.4967 19.5371 49.1667 19.3038 48.74C19.0704 48.3133 18.9538 47.81 18.9538 47.23C18.9538 46.65 19.0704 46.1467 19.3038 45.72C19.5371 45.2867 19.8638 44.9567 20.2838 44.73C20.7038 44.5033 21.1838 44.39 21.7238 44.39ZM27.5756 44.39C28.0423 44.39 28.4423 44.5 28.7756 44.72C29.109 44.94 29.3456 45.2367 29.4856 45.61V44.46H30.8856V50H29.4856V48.84C29.3456 49.2133 29.109 49.5133 28.7756 49.74C28.4423 49.96 28.0423 50.07 27.5756 50.07C27.109 50.07 26.689 49.9567 26.3156 49.73C25.9423 49.5033 25.649 49.1767 25.4356 48.75C25.229 48.3167 25.1256 47.81 25.1256 47.23C25.1256 46.65 25.229 46.1467 25.4356 45.72C25.649 45.2867 25.9423 44.9567 26.3156 44.73C26.689 44.5033 27.109 44.39 27.5756 44.39ZM28.0156 45.62C27.5756 45.62 27.2223 45.7633 26.9556 46.05C26.689 46.3367 26.5556 46.73 26.5556 47.23C26.5556 47.73 26.689 48.1233 26.9556 48.41C27.2223 48.69 27.5756 48.83 28.0156 48.83C28.4423 48.83 28.7923 48.6867 29.0656 48.4C29.3456 48.1067 29.4856 47.7167 29.4856 47.23C29.4856 46.7367 29.3456 46.3467 29.0656 46.06C28.7923 45.7667 28.4423 45.62 28.0156 45.62ZM35.1234 48.79V50H34.3834C33.7634 50 33.2868 49.85 32.9534 49.55C32.6268 49.25 32.4634 48.75 32.4634 48.05V45.65H31.6934V44.46H32.4634V43.09H33.8734V44.46H35.1134V45.65H33.8734V48.07C33.8734 48.3367 33.9268 48.5233 34.0334 48.63C34.1401 48.7367 34.3201 48.79 34.5734 48.79H35.1234ZM35.978 42.87C35.978 42.6433 36.058 42.46 36.218 42.32C36.378 42.1733 36.588 42.1 36.848 42.1C37.108 42.1 37.318 42.1733 37.478 42.32C37.638 42.46 37.718 42.6433 37.718 42.87C37.718 43.09 37.638 43.2733 37.478 43.42C37.318 43.56 37.108 43.63 36.848 43.63C36.588 43.63 36.378 43.56 36.218 43.42C36.058 43.2733 35.978 43.09 35.978 42.87ZM37.548 44.46V50H36.138V44.46H37.548ZM41.3836 44.39C41.9236 44.39 42.4069 44.5033 42.8336 44.73C43.2669 44.9567 43.6069 45.2867 43.8536 45.72C44.1003 46.1467 44.2236 46.65 44.2236 47.23C44.2236 47.81 44.1003 48.3133 43.8536 48.74C43.6069 49.1667 43.2669 49.4967 42.8336 49.73C42.4069 49.9567 41.9236 50.07 41.3836 50.07C40.8436 50.07 40.3569 49.9567 39.9236 49.73C39.4969 49.4967 39.1603 49.1667 38.9136 48.74C38.6669 48.3133 38.5436 47.81 38.5436 47.23C38.5436 46.65 38.6669 46.1467 38.9136 45.72C39.1603 45.2867 39.4969 44.9567 39.9236 44.73C40.3569 44.5033 40.8436 44.39 41.3836 44.39ZM41.3836 45.61C40.9903 45.61 40.6569 45.75 40.3836 46.03C40.1103 46.3033 39.9736 46.7033 39.9736 47.23C39.9736 47.7567 40.1103 48.16 40.3836 48.44C40.6569 48.7133 40.9903 48.85 41.3836 48.85C41.7769 48.85 42.1103 48.7133 42.3836 48.44C42.6569 48.16 42.7936 47.7567 42.7936 47.23C42.7936 46.7033 42.6569 46.3033 42.3836 46.03C42.1103 45.75 41.7769 45.61 41.3836 45.61ZM48.5201 44.38C49.1601 44.38 49.6701 44.59 50.0501 45.01C50.4301 45.43 50.6201 46.02 50.6201 46.78V50H49.2201V46.94C49.2201 46.5 49.1067 46.16 48.8801 45.92C48.6534 45.6733 48.3434 45.55 47.9501 45.55C47.5501 45.55 47.2301 45.68 46.9901 45.94C46.7501 46.2 46.6301 46.5733 46.6301 47.06V50H45.2201V44.46H46.6301V45.57C46.7767 45.1967 47.0167 44.9067 47.3501 44.7C47.6901 44.4867 48.0801 44.38 48.5201 44.38Z" fill="black"/>
</svg>
