<svg width="57" height="55" viewBox="0 0 57 55" fill="none" xmlns="http://www.w3.org/2000/svg">
<path d="M26.0625 18.125H22V13.25H26.0625V9.1875H30.9375V13.25H35V18.125H30.9375V22.1875H26.0625V18.125ZM28.5 0.25L15.5 5.125V15.0212C15.5 23.2275 21.0412 30.8813 28.5 32.75C35.9587 30.8813 41.5 23.2275 41.5 15.0212V5.125L28.5 0.25ZM38.25 15.0212C38.25 21.5212 34.1063 27.5338 28.5 29.37C22.8937 27.5338 18.75 21.5375 18.75 15.0212V7.38375L28.5 3.7275L38.25 7.38375V15.0212Z" fill="#FC257E"/>
<path d="M6.49 43.94V51H5.07V47.93H2.05V51H0.64V43.94H2.05V46.8H5.07V43.94H6.49ZM12.9789 48.02C12.9789 48.16 12.9622 48.32 12.9289 48.5H8.86891C8.88891 48.9933 9.02224 49.3567 9.26891 49.59C9.51557 49.8233 9.82224 49.94 10.1889 49.94C10.5156 49.94 10.7856 49.86 10.9989 49.7C11.2189 49.54 11.3589 49.3233 11.4189 49.05H12.9089C12.8356 49.4367 12.6789 49.7833 12.4389 50.09C12.1989 50.3967 11.8889 50.6367 11.5089 50.81C11.1356 50.9833 10.7189 51.07 10.2589 51.07C9.71891 51.07 9.23891 50.9567 8.81891 50.73C8.39891 50.4967 8.07224 50.1667 7.83891 49.74C7.60557 49.3133 7.48891 48.81 7.48891 48.23C7.48891 47.65 7.60557 47.1467 7.83891 46.72C8.07224 46.2867 8.39891 45.9567 8.81891 45.73C9.23891 45.5033 9.71891 45.39 10.2589 45.39C10.8056 45.39 11.2822 45.5033 11.6889 45.73C12.1022 45.9567 12.4189 46.27 12.6389 46.67C12.8656 47.0633 12.9789 47.5133 12.9789 48.02ZM11.5589 47.88C11.5789 47.4267 11.4589 47.0833 11.1989 46.85C10.9456 46.6167 10.6322 46.5 10.2589 46.5C9.87891 46.5 9.55891 46.6167 9.29891 46.85C9.03891 47.0833 8.89557 47.4267 8.86891 47.88H11.5589ZM16.1498 45.39C16.6165 45.39 17.0165 45.5 17.3498 45.72C17.6832 45.94 17.9198 46.2367 18.0598 46.61V45.46H19.4598V51H18.0598V49.84C17.9198 50.2133 17.6832 50.5133 17.3498 50.74C17.0165 50.96 16.6165 51.07 16.1498 51.07C15.6832 51.07 15.2632 50.9567 14.8898 50.73C14.5165 50.5033 14.2232 50.1767 14.0098 49.75C13.8032 49.3167 13.6998 48.81 13.6998 48.23C13.6998 47.65 13.8032 47.1467 14.0098 46.72C14.2232 46.2867 14.5165 45.9567 14.8898 45.73C15.2632 45.5033 15.6832 45.39 16.1498 45.39ZM16.5898 46.62C16.1498 46.62 15.7965 46.7633 15.5298 47.05C15.2632 47.3367 15.1298 47.73 15.1298 48.23C15.1298 48.73 15.2632 49.1233 15.5298 49.41C15.7965 49.69 16.1498 49.83 16.5898 49.83C17.0165 49.83 17.3665 49.6867 17.6398 49.4C17.9198 49.1067 18.0598 48.7167 18.0598 48.23C18.0598 47.7367 17.9198 47.3467 17.6398 47.06C17.3665 46.7667 17.0165 46.62 16.5898 46.62ZM22.1477 43.6V51H20.7377V43.6H22.1477ZM26.3832 49.79V51H25.6432C25.0232 51 24.5465 50.85 24.2132 50.55C23.8865 50.25 23.7232 49.75 23.7232 49.05V46.65H22.9532V45.46H23.7232V44.09H25.1332V45.46H26.3732V46.65H25.1332V49.07C25.1332 49.3367 25.1865 49.5233 25.2932 49.63C25.3999 49.7367 25.5799 49.79 25.8332 49.79H26.3832ZM30.6978 45.38C31.3378 45.38 31.8478 45.59 32.2278 46.01C32.6078 46.43 32.7978 47.02 32.7978 47.78V51H31.3978V47.94C31.3978 47.5 31.2845 47.16 31.0578 46.92C30.8311 46.6733 30.5211 46.55 30.1278 46.55C29.7278 46.55 29.4078 46.68 29.1678 46.94C28.9278 47.2 28.8078 47.5733 28.8078 48.06V51H27.3978V43.6H28.8078V46.57C28.9545 46.1967 29.1945 45.9067 29.5278 45.7C29.8678 45.4867 30.2578 45.38 30.6978 45.38ZM36.5284 45.39C37.2418 45.39 37.8351 45.5833 38.3084 45.97C38.7884 46.3567 39.0884 46.8833 39.2084 47.55H37.7184C37.6584 47.2567 37.5218 47.0267 37.3084 46.86C37.0951 46.6867 36.8251 46.6 36.4984 46.6C36.1251 46.6 35.8118 46.74 35.5584 47.02C35.3118 47.2933 35.1884 47.6967 35.1884 48.23C35.1884 48.7633 35.3118 49.17 35.5584 49.45C35.8118 49.7233 36.1251 49.86 36.4984 49.86C36.8251 49.86 37.0951 49.7767 37.3084 49.61C37.5218 49.4367 37.6584 49.2033 37.7184 48.91H39.2084C39.0884 49.5767 38.7884 50.1033 38.3084 50.49C37.8351 50.8767 37.2418 51.07 36.5284 51.07C35.9884 51.07 35.5084 50.9567 35.0884 50.73C34.6684 50.4967 34.3418 50.1667 34.1084 49.74C33.8751 49.3133 33.7584 48.81 33.7584 48.23C33.7584 47.65 33.8751 47.1467 34.1084 46.72C34.3418 46.2867 34.6684 45.9567 35.0884 45.73C35.5084 45.5033 35.9884 45.39 36.5284 45.39ZM42.3803 45.39C42.847 45.39 43.247 45.5 43.5803 45.72C43.9136 45.94 44.1503 46.2367 44.2903 46.61V45.46H45.6903V51H44.2903V49.84C44.1503 50.2133 43.9136 50.5133 43.5803 50.74C43.247 50.96 42.847 51.07 42.3803 51.07C41.9136 51.07 41.4936 50.9567 41.1203 50.73C40.747 50.5033 40.4536 50.1767 40.2403 49.75C40.0336 49.3167 39.9303 48.81 39.9303 48.23C39.9303 47.65 40.0336 47.1467 40.2403 46.72C40.4536 46.2867 40.747 45.9567 41.1203 45.73C41.4936 45.5033 41.9136 45.39 42.3803 45.39ZM42.8203 46.62C42.3803 46.62 42.027 46.7633 41.7603 47.05C41.4936 47.3367 41.3603 47.73 41.3603 48.23C41.3603 48.73 41.4936 49.1233 41.7603 49.41C42.027 49.69 42.3803 49.83 42.8203 49.83C43.247 49.83 43.597 49.6867 43.8703 49.4C44.1503 49.1067 44.2903 48.7167 44.2903 48.23C44.2903 47.7367 44.1503 47.3467 43.8703 47.06C43.597 46.7667 43.247 46.62 42.8203 46.62ZM48.3781 46.52C48.5848 46.1667 48.8581 45.89 49.1981 45.69C49.5381 45.4833 49.9181 45.38 50.3381 45.38V46.89H49.9281C48.8948 46.89 48.3781 47.37 48.3781 48.33V51H46.9681V45.46H48.3781V46.52ZM56.3285 48.02C56.3285 48.16 56.3118 48.32 56.2785 48.5H52.2185C52.2385 48.9933 52.3718 49.3567 52.6185 49.59C52.8652 49.8233 53.1718 49.94 53.5385 49.94C53.8652 49.94 54.1352 49.86 54.3485 49.7C54.5685 49.54 54.7085 49.3233 54.7685 49.05H56.2585C56.1852 49.4367 56.0285 49.7833 55.7885 50.09C55.5485 50.3967 55.2385 50.6367 54.8585 50.81C54.4852 50.9833 54.0685 51.07 53.6085 51.07C53.0685 51.07 52.5885 50.9567 52.1685 50.73C51.7485 50.4967 51.4218 50.1667 51.1885 49.74C50.9552 49.3133 50.8385 48.81 50.8385 48.23C50.8385 47.65 50.9552 47.1467 51.1885 46.72C51.4218 46.2867 51.7485 45.9567 52.1685 45.73C52.5885 45.5033 53.0685 45.39 53.6085 45.39C54.1552 45.39 54.6318 45.5033 55.0385 45.73C55.4518 45.9567 55.7685 46.27 55.9885 46.67C56.2152 47.0633 56.3285 47.5133 56.3285 48.02ZM54.9085 47.88C54.9285 47.4267 54.8085 47.0833 54.5485 46.85C54.2952 46.6167 53.9818 46.5 53.6085 46.5C53.2285 46.5 52.9085 46.6167 52.6485 46.85C52.3885 47.0833 52.2452 47.4267 52.2185 47.88H54.9085Z" fill="black"/>
</svg>
