<svg width="232" height="93" viewBox="0 0 232 93" fill="none" xmlns="http://www.w3.org/2000/svg">
<path d="M109.872 39.384C107.536 39.384 105.456 38.984 103.632 38.184C101.808 37.384 100.368 36.296 99.312 34.92C98.256 33.512 97.664 31.944 97.536 30.216H105.648C105.744 31.144 106.176 31.896 106.944 32.472C107.712 33.048 108.656 33.336 109.776 33.336C110.8 33.336 111.584 33.144 112.128 32.76C112.704 32.344 112.992 31.816 112.992 31.176C112.992 30.408 112.592 29.848 111.792 29.496C110.992 29.112 109.696 28.696 107.904 28.248C105.984 27.8 104.384 27.336 103.104 26.856C101.824 26.344 100.72 25.56 99.792 24.504C98.864 23.416 98.4 21.96 98.4 20.136C98.4 18.6 98.816 17.208 99.648 15.96C100.512 14.68 101.76 13.672 103.392 12.936C105.056 12.2 107.024 11.832 109.296 11.832C112.656 11.832 115.296 12.664 117.216 14.328C119.168 15.992 120.288 18.2 120.576 20.952H112.992C112.864 20.024 112.448 19.288 111.744 18.744C111.072 18.2 110.176 17.928 109.056 17.928C108.096 17.928 107.36 18.12 106.848 18.504C106.336 18.856 106.08 19.352 106.08 19.992C106.08 20.76 106.48 21.336 107.28 21.72C108.112 22.104 109.392 22.488 111.12 22.872C113.104 23.384 114.72 23.896 115.968 24.408C117.216 24.888 118.304 25.688 119.232 26.808C120.192 27.896 120.688 29.368 120.72 31.224C120.72 32.792 120.272 34.2 119.376 35.448C118.512 36.664 117.248 37.624 115.584 38.328C113.952 39.032 112.048 39.384 109.872 39.384ZM138.654 39.384C136.03 39.384 133.662 38.824 131.55 37.704C129.47 36.584 127.822 34.984 126.606 32.904C125.422 30.824 124.83 28.392 124.83 25.608C124.83 22.856 125.438 20.44 126.654 18.36C127.87 16.248 129.534 14.632 131.646 13.512C133.758 12.392 136.126 11.832 138.75 11.832C141.374 11.832 143.742 12.392 145.854 13.512C147.966 14.632 149.63 16.248 150.846 18.36C152.062 20.44 152.67 22.856 152.67 25.608C152.67 28.36 152.046 30.792 150.798 32.904C149.582 34.984 147.902 36.584 145.758 37.704C143.646 38.824 141.278 39.384 138.654 39.384ZM138.654 32.28C140.222 32.28 141.55 31.704 142.638 30.552C143.758 29.4 144.318 27.752 144.318 25.608C144.318 23.464 143.774 21.816 142.686 20.664C141.63 19.512 140.318 18.936 138.75 18.936C137.15 18.936 135.822 19.512 134.766 20.664C133.71 21.784 133.182 23.432 133.182 25.608C133.182 27.752 133.694 29.4 134.718 30.552C135.774 31.704 137.086 32.28 138.654 32.28ZM156.112 25.608C156.112 22.824 156.672 20.392 157.792 18.312C158.944 16.232 160.528 14.632 162.544 13.512C164.592 12.392 166.928 11.832 169.552 11.832C172.912 11.832 175.712 12.712 177.952 14.472C180.224 16.232 181.712 18.712 182.416 21.912H173.68C172.944 19.864 171.52 18.84 169.408 18.84C167.904 18.84 166.704 19.432 165.808 20.616C164.912 21.768 164.464 23.432 164.464 25.608C164.464 27.784 164.912 29.464 165.808 30.648C166.704 31.8 167.904 32.376 169.408 32.376C171.52 32.376 172.944 31.352 173.68 29.304H182.416C181.712 32.44 180.224 34.904 177.952 36.696C175.68 38.488 172.88 39.384 169.552 39.384C166.928 39.384 164.592 38.824 162.544 37.704C160.528 36.584 158.944 34.984 157.792 32.904C156.672 30.824 156.112 28.392 156.112 25.608ZM191.655 9.432C190.215 9.432 189.031 9.016 188.103 8.184C187.207 7.32 186.759 6.264 186.759 5.016C186.759 3.736 187.207 2.68 188.103 1.848C189.031 0.983997 190.215 0.551997 191.655 0.551997C193.063 0.551997 194.215 0.983997 195.111 1.848C196.039 2.68 196.503 3.736 196.503 5.016C196.503 6.264 196.039 7.32 195.111 8.184C194.215 9.016 193.063 9.432 191.655 9.432ZM195.735 12.216V39H187.527V12.216H195.735ZM214.595 39.384C211.971 39.384 209.603 38.824 207.491 37.704C205.411 36.584 203.763 34.984 202.547 32.904C201.363 30.824 200.771 28.392 200.771 25.608C200.771 22.856 201.379 20.44 202.595 18.36C203.811 16.248 205.475 14.632 207.587 13.512C209.699 12.392 212.067 11.832 214.691 11.832C217.315 11.832 219.683 12.392 221.795 13.512C223.907 14.632 225.571 16.248 226.787 18.36C228.003 20.44 228.611 22.856 228.611 25.608C228.611 28.36 227.987 30.792 226.739 32.904C225.523 34.984 223.843 36.584 221.699 37.704C219.587 38.824 217.219 39.384 214.595 39.384ZM214.595 32.28C216.163 32.28 217.491 31.704 218.579 30.552C219.699 29.4 220.259 27.752 220.259 25.608C220.259 23.464 219.715 21.816 218.627 20.664C217.571 19.512 216.259 18.936 214.691 18.936C213.091 18.936 211.763 19.512 210.707 20.664C209.651 21.784 209.123 23.432 209.123 25.608C209.123 27.752 209.635 29.4 210.659 30.552C211.715 31.704 213.027 32.28 214.595 32.28ZM97.344 69.608C97.344 66.824 97.904 64.392 99.024 62.312C100.176 60.232 101.76 58.632 103.776 57.512C105.824 56.392 108.16 55.832 110.784 55.832C114.144 55.832 116.944 56.712 119.184 58.472C121.456 60.232 122.944 62.712 123.648 65.912H114.912C114.176 63.864 112.752 62.84 110.64 62.84C109.136 62.84 107.936 63.432 107.04 64.616C106.144 65.768 105.696 67.432 105.696 69.608C105.696 71.784 106.144 73.464 107.04 74.648C107.936 75.8 109.136 76.376 110.64 76.376C112.752 76.376 114.176 75.352 114.912 73.304H123.648C122.944 76.44 121.456 78.904 119.184 80.696C116.912 82.488 114.112 83.384 110.784 83.384C108.16 83.384 105.824 82.824 103.776 81.704C101.76 80.584 100.176 78.984 99.024 76.904C97.904 74.824 97.344 72.392 97.344 69.608ZM136.247 60.68C137.207 59.208 138.407 58.056 139.847 57.224C141.287 56.36 142.887 55.928 144.647 55.928V64.616H142.391C140.343 64.616 138.807 65.064 137.783 65.96C136.759 66.824 136.247 68.36 136.247 70.568V83H128.039V56.216H136.247V60.68ZM173.818 69.176C173.818 69.944 173.77 70.744 173.674 71.576H155.098C155.226 73.24 155.754 74.52 156.682 75.416C157.642 76.28 158.81 76.712 160.186 76.712C162.234 76.712 163.658 75.848 164.458 74.12H173.194C172.746 75.88 171.93 77.464 170.746 78.872C169.594 80.28 168.138 81.384 166.378 82.184C164.618 82.984 162.65 83.384 160.474 83.384C157.85 83.384 155.514 82.824 153.466 81.704C151.418 80.584 149.818 78.984 148.666 76.904C147.514 74.824 146.938 72.392 146.938 69.608C146.938 66.824 147.498 64.392 148.618 62.312C149.77 60.232 151.37 58.632 153.418 57.512C155.466 56.392 157.818 55.832 160.474 55.832C163.066 55.832 165.37 56.376 167.386 57.464C169.402 58.552 170.97 60.104 172.09 62.12C173.242 64.136 173.818 66.488 173.818 69.176ZM165.418 67.016C165.418 65.608 164.938 64.488 163.978 63.656C163.018 62.824 161.818 62.408 160.378 62.408C159.002 62.408 157.834 62.808 156.874 63.608C155.946 64.408 155.37 65.544 155.146 67.016H165.418ZM176.516 69.56C176.516 66.808 177.028 64.392 178.052 62.312C179.108 60.232 180.532 58.632 182.324 57.512C184.116 56.392 186.116 55.832 188.324 55.832C190.084 55.832 191.684 56.2 193.124 56.936C194.596 57.672 195.748 58.664 196.58 59.912V47.48H204.788V83H196.58V79.16C195.812 80.44 194.708 81.464 193.268 82.232C191.86 83 190.212 83.384 188.324 83.384C186.116 83.384 184.116 82.824 182.324 81.704C180.532 80.552 179.108 78.936 178.052 76.856C177.028 74.744 176.516 72.312 176.516 69.56ZM196.58 69.608C196.58 67.56 196.004 65.944 194.852 64.76C193.732 63.576 192.356 62.984 190.724 62.984C189.092 62.984 187.7 63.576 186.548 64.76C185.428 65.912 184.868 67.512 184.868 69.56C184.868 71.608 185.428 73.24 186.548 74.456C187.7 75.64 189.092 76.232 190.724 76.232C192.356 76.232 193.732 75.64 194.852 74.456C196.004 73.272 196.58 71.656 196.58 69.608ZM218.406 76.232H230.022V83H209.238V76.472L220.374 62.984H209.334V56.216H229.782V62.744L218.406 76.232Z" fill="white"/>
<g filter="url(#filter0_d)">
<rect x="8" y="12" width="71" height="71" rx="6" fill="white"/>
</g>
<circle cx="44.6094" cy="48.6094" r="8.875" fill="#F78D1D"/>
<circle cx="44.0547" cy="48.0547" r="15.8516" stroke="#8B15C2" stroke-width="16"/>
<circle cx="44.0547" cy="48.0547" r="14.6953" stroke="white" stroke-width="5"/>
<rect x="54.5938" y="45.2812" width="7.76562" height="5.54688" fill="#8B15C2"/>
<defs>
<filter id="filter0_d" x="0" y="6" width="87" height="87" filterUnits="userSpaceOnUse" color-interpolation-filters="sRGB">
<feFlood flood-opacity="0" result="BackgroundImageFix"/>
<feColorMatrix in="SourceAlpha" type="matrix" values="0 0 0 0 0 0 0 0 0 0 0 0 0 0 0 0 0 0 127 0"/>
<feOffset dy="2"/>
<feGaussianBlur stdDeviation="4"/>
<feColorMatrix type="matrix" values="0 0 0 0 0 0 0 0 0 0 0 0 0 0 0 0 0 0 0.1 0"/>
<feBlend mode="normal" in2="BackgroundImageFix" result="effect1_dropShadow"/>
<feBlend mode="normal" in="SourceGraphic" in2="effect1_dropShadow" result="shape"/>
</filter>
</defs>
</svg>
