<svg width="58" height="65" viewBox="0 0 58 65" fill="none" xmlns="http://www.w3.org/2000/svg">
<path d="M2.05 58.38V61H0.64V53.94H3.21C4.04333 53.94 4.67 54.14 5.09 54.54C5.51667 54.94 5.73 55.4833 5.73 56.17C5.73 56.8433 5.51 57.38 5.07 57.78C4.63667 58.18 4.01667 58.38 3.21 58.38H2.05ZM3.06 57.25C3.88667 57.25 4.3 56.89 4.3 56.17C4.3 55.8167 4.20333 55.5467 4.01 55.36C3.81667 55.1733 3.5 55.08 3.06 55.08H2.05V57.25H3.06ZM8.05586 53.6V61H6.64586V53.6H8.05586ZM11.5014 55.39C11.9681 55.39 12.3681 55.5 12.7014 55.72C13.0347 55.94 13.2714 56.2367 13.4114 56.61V55.46H14.8114V61H13.4114V59.84C13.2714 60.2133 13.0347 60.5133 12.7014 60.74C12.3681 60.96 11.9681 61.07 11.5014 61.07C11.0347 61.07 10.6147 60.9567 10.2414 60.73C9.86807 60.5033 9.57474 60.1767 9.36141 59.75C9.15474 59.3167 9.05141 58.81 9.05141 58.23C9.05141 57.65 9.15474 57.1467 9.36141 56.72C9.57474 56.2867 9.86807 55.9567 10.2414 55.73C10.6147 55.5033 11.0347 55.39 11.5014 55.39ZM11.9414 56.62C11.5014 56.62 11.1481 56.7633 10.8814 57.05C10.6147 57.3367 10.4814 57.73 10.4814 58.23C10.4814 58.73 10.6147 59.1233 10.8814 59.41C11.1481 59.69 11.5014 59.83 11.9414 59.83C12.3681 59.83 12.7181 59.6867 12.9914 59.4C13.2714 59.1067 13.4114 58.7167 13.4114 58.23C13.4114 57.7367 13.2714 57.3467 12.9914 57.06C12.7181 56.7667 12.3681 56.62 11.9414 56.62ZM19.3892 55.38C20.0292 55.38 20.5392 55.59 20.9192 56.01C21.2992 56.43 21.4892 57.02 21.4892 57.78V61H20.0892V57.94C20.0892 57.5 19.9759 57.16 19.7492 56.92C19.5226 56.6733 19.2126 56.55 18.8192 56.55C18.4192 56.55 18.0992 56.68 17.8592 56.94C17.6192 57.2 17.4992 57.5733 17.4992 58.06V61H16.0892V55.46H17.4992V56.57C17.6459 56.1967 17.8859 55.9067 18.2192 55.7C18.5592 55.4867 18.9492 55.38 19.3892 55.38ZM25.6898 59.79V61H24.9498C24.3298 61 23.8532 60.85 23.5198 60.55C23.1932 60.25 23.0298 59.75 23.0298 59.05V56.65H22.2598V55.46H23.0298V54.09H24.4398V55.46H25.6798V56.65H24.4398V59.07C24.4398 59.3367 24.4932 59.5233 24.5998 59.63C24.7065 59.7367 24.8865 59.79 25.1398 59.79H25.6898ZM31.0522 55.39C31.5189 55.39 31.9189 55.5 32.2522 55.72C32.5855 55.94 32.8222 56.2367 32.9622 56.61V55.46H34.3622V61H32.9622V59.84C32.8222 60.2133 32.5855 60.5133 32.2522 60.74C31.9189 60.96 31.5189 61.07 31.0522 61.07C30.5855 61.07 30.1655 60.9567 29.7922 60.73C29.4189 60.5033 29.1255 60.1767 28.9122 59.75C28.7055 59.3167 28.6022 58.81 28.6022 58.23C28.6022 57.65 28.7055 57.1467 28.9122 56.72C29.1255 56.2867 29.4189 55.9567 29.7922 55.73C30.1655 55.5033 30.5855 55.39 31.0522 55.39ZM31.4922 56.62C31.0522 56.62 30.6989 56.7633 30.4322 57.05C30.1655 57.3367 30.0322 57.73 30.0322 58.23C30.0322 58.73 30.1655 59.1233 30.4322 59.41C30.6989 59.69 31.0522 59.83 31.4922 59.83C31.9189 59.83 32.2689 59.6867 32.5422 59.4C32.8222 59.1067 32.9622 58.7167 32.9622 58.23C32.9622 57.7367 32.8222 57.3467 32.5422 57.06C32.2689 56.7667 31.9189 56.62 31.4922 56.62ZM40.7777 59.79V61H40.0377C39.4177 61 38.9411 60.85 38.6077 60.55C38.2811 60.25 38.1177 59.75 38.1177 59.05V56.65H37.3477V55.46H38.1177V54.09H39.5277V55.46H40.7677V56.65H39.5277V59.07C39.5277 59.3367 39.5811 59.5233 39.6877 59.63C39.7944 59.7367 39.9744 59.79 40.2277 59.79H40.7777ZM43.2023 56.52C43.409 56.1667 43.6823 55.89 44.0223 55.69C44.3623 55.4833 44.7423 55.38 45.1623 55.38V56.89H44.7523C43.719 56.89 43.2023 57.37 43.2023 58.33V61H41.7923V55.46H43.2023V56.52ZM51.1527 58.02C51.1527 58.16 51.1361 58.32 51.1027 58.5H47.0427C47.0627 58.9933 47.1961 59.3567 47.4427 59.59C47.6894 59.8233 47.9961 59.94 48.3627 59.94C48.6894 59.94 48.9594 59.86 49.1727 59.7C49.3927 59.54 49.5327 59.3233 49.5927 59.05H51.0827C51.0094 59.4367 50.8527 59.7833 50.6127 60.09C50.3727 60.3967 50.0627 60.6367 49.6827 60.81C49.3094 60.9833 48.8927 61.07 48.4327 61.07C47.8927 61.07 47.4127 60.9567 46.9927 60.73C46.5727 60.4967 46.2461 60.1667 46.0127 59.74C45.7794 59.3133 45.6627 58.81 45.6627 58.23C45.6627 57.65 45.7794 57.1467 46.0127 56.72C46.2461 56.2867 46.5727 55.9567 46.9927 55.73C47.4127 55.5033 47.8927 55.39 48.4327 55.39C48.9794 55.39 49.4561 55.5033 49.8627 55.73C50.2761 55.9567 50.5927 56.27 50.8127 56.67C51.0394 57.0633 51.1527 57.5133 51.1527 58.02ZM49.7327 57.88C49.7527 57.4267 49.6327 57.0833 49.3727 56.85C49.1194 56.6167 48.8061 56.5 48.4327 56.5C48.0527 56.5 47.7327 56.6167 47.4727 56.85C47.2127 57.0833 47.0694 57.4267 47.0427 57.88H49.7327ZM57.3637 58.02C57.3637 58.16 57.347 58.32 57.3137 58.5H53.2537C53.2737 58.9933 53.407 59.3567 53.6537 59.59C53.9003 59.8233 54.207 59.94 54.5737 59.94C54.9003 59.94 55.1703 59.86 55.3837 59.7C55.6037 59.54 55.7437 59.3233 55.8037 59.05H57.2937C57.2203 59.4367 57.0637 59.7833 56.8237 60.09C56.5837 60.3967 56.2737 60.6367 55.8937 60.81C55.5203 60.9833 55.1037 61.07 54.6437 61.07C54.1037 61.07 53.6237 60.9567 53.2037 60.73C52.7837 60.4967 52.457 60.1667 52.2237 59.74C51.9903 59.3133 51.8737 58.81 51.8737 58.23C51.8737 57.65 51.9903 57.1467 52.2237 56.72C52.457 56.2867 52.7837 55.9567 53.2037 55.73C53.6237 55.5033 54.1037 55.39 54.6437 55.39C55.1903 55.39 55.667 55.5033 56.0737 55.73C56.487 55.9567 56.8037 56.27 57.0237 56.67C57.2503 57.0633 57.3637 57.5133 57.3637 58.02ZM55.9437 57.88C55.9637 57.4267 55.8437 57.0833 55.5837 56.85C55.3303 56.6167 55.017 56.5 54.6437 56.5C54.2637 56.5 53.9437 56.6167 53.6837 56.85C53.4237 57.0833 53.2803 57.4267 53.2537 57.88H55.9437Z" fill="black"/>
<g clip-path="url(#clip0)">
<path d="M25.75 6.49999C24.1347 6.49219 22.5429 6.88757 21.1189 7.65031C19.695 8.41305 18.4838 9.51904 17.5952 10.8681C16.7066 12.2171 16.1687 13.7665 16.0301 15.3759C15.8916 16.9854 16.1568 18.6039 16.8017 20.085C14.9167 21.9267 13.8334 24.44 13.8334 27.0833C13.8334 32.5 18.1667 36.8333 23.5834 36.8333C24.6667 36.8333 25.75 36.595 26.8334 36.2267V45.5H31.1667V34.1683C32.25 34.4717 33.3334 34.6667 34.4167 34.6667C35.9816 34.6667 37.5312 34.3584 38.977 33.7596C40.4228 33.1607 41.7365 32.2829 42.8431 31.1763C43.9496 30.0698 44.8274 28.7561 45.4263 27.3103C46.0251 25.8645 46.3334 24.3149 46.3334 22.75C46.3334 21.1851 46.0251 19.6355 45.4263 18.1897C44.8274 16.7439 43.9496 15.4302 42.8431 14.3236C41.7365 13.2171 40.4228 12.3393 38.977 11.7404C37.5312 11.1416 35.9816 10.8333 34.4167 10.8333H33.8534C32.055 8.14666 29 6.49999 25.75 6.49999ZM25.75 10.8333C28.61 10.8333 30.9717 13.065 31.1667 15.925C32.1634 15.4267 33.3334 15.1667 34.4167 15.1667C36.4279 15.1667 38.3568 15.9656 39.7789 17.3878C41.2011 18.8099 42 20.7388 42 22.75C42 24.7612 41.2011 26.6901 39.7789 28.1122C38.3568 29.5344 36.4279 30.3333 34.4167 30.3333C32.3367 30.3333 30.365 29.4883 28.9134 27.9717C28.7071 29.2363 28.0576 30.3863 27.0811 31.216C26.1046 32.0456 24.8647 32.5008 23.5834 32.5C22.1468 32.5 20.769 31.9293 19.7532 30.9135C18.7374 29.8977 18.1667 28.5199 18.1667 27.0833C18.1667 24.0933 19.9 22.8367 22.5 21.2117C20.7667 18.98 20.3334 17.68 20.3334 16.25C20.3334 14.8134 20.9041 13.4357 21.9199 12.4198C22.9357 11.404 24.3135 10.8333 25.75 10.8333Z" fill="#A41BE4"/>
</g>
<defs>
<clipPath id="clip0">
<rect width="52" height="52" fill="white" transform="translate(3)"/>
</clipPath>
</defs>
</svg>
