<svg width="30" height="30" viewBox="0 0 30 30" fill="none" xmlns="http://www.w3.org/2000/svg">
<rect x="0.5" y="0.5" width="29" height="29" rx="5.5" fill="white" stroke="black"/>
<path d="M12.7502 6.75H8.25018C7.8525 6.75045 7.47122 6.90863 7.19002 7.18983C6.90881 7.47104 6.75063 7.85231 6.75018 8.25V12.75C6.75063 13.1477 6.90881 13.529 7.19002 13.8102C7.47122 14.0914 7.8525 14.2496 8.25018 14.25H12.7502C13.1479 14.2496 13.5291 14.0914 13.8104 13.8102C14.0916 13.529 14.2497 13.1477 14.2502 12.75V8.25C14.2497 7.85231 14.0916 7.47104 13.8104 7.18983C13.5291 6.90863 13.1479 6.75045 12.7502 6.75ZM12.7502 12.75H8.25018V8.25H12.7502V12.75Z" fill="#FC257E"/>
<path d="M12.7502 15.75H8.25018C7.8525 15.7504 7.47122 15.9086 7.19002 16.1898C6.90881 16.471 6.75063 16.8523 6.75018 17.25V21.75C6.75063 22.1477 6.90881 22.529 7.19002 22.8102C7.47122 23.0914 7.8525 23.2496 8.25018 23.25H12.7502C13.1479 23.2496 13.5291 23.0914 13.8104 22.8102C14.0916 22.529 14.2497 22.1477 14.2502 21.75V17.25C14.2497 16.8523 14.0916 16.471 13.8104 16.1898C13.5291 15.9086 13.1479 15.7504 12.7502 15.75ZM12.7502 21.75H8.25018V17.25H12.7502L12.7511 21.75H12.7502Z" fill="#F78D1D"/>
<path d="M21.7502 6.75H17.2502C16.8525 6.75045 16.4712 6.90863 16.19 7.18983C15.9088 7.47104 15.7506 7.85231 15.7502 8.25V12.75C15.7506 13.1477 15.9088 13.529 16.19 13.8102C16.4712 14.0914 16.8525 14.2496 17.2502 14.25H21.7502C22.1479 14.2496 22.5291 14.0914 22.8104 13.8102C23.0916 13.529 23.2497 13.1477 23.2502 12.75V8.25C23.2497 7.85231 23.0916 7.47104 22.8104 7.18983C22.5291 6.90863 22.1479 6.75045 21.7502 6.75ZM21.7502 12.75H17.2502V8.25H21.7502L21.7511 12.75H21.7502Z" fill="#A41BE4"/>
<path d="M16.5002 20.25C16.6991 20.25 16.8899 20.171 17.0305 20.0303C17.1712 19.8897 17.2502 19.6989 17.2502 19.5V16.5C17.2502 16.3011 17.1712 16.1103 17.0305 15.9697C16.8899 15.829 16.6991 15.75 16.5002 15.75C16.3013 15.75 16.1105 15.829 15.9699 15.9697C15.8292 16.1103 15.7502 16.3011 15.7502 16.5V19.5C15.7502 19.6989 15.8292 19.8897 15.9699 20.0303C16.1105 20.171 16.3013 20.25 16.5002 20.25Z" fill="black"/>
<path d="M22.5002 17.25H20.2502V16.5C20.2502 16.3011 20.1712 16.1103 20.0305 15.9697C19.8899 15.829 19.6991 15.75 19.5002 15.75C19.3013 15.75 19.1105 15.829 18.9699 15.9697C18.8292 16.1103 18.7502 16.3011 18.7502 16.5V21.75H16.5002C16.3013 21.75 16.1105 21.829 15.9699 21.9697C15.8292 22.1103 15.7502 22.3011 15.7502 22.5C15.7502 22.6989 15.8292 22.8897 15.9699 23.0303C16.1105 23.171 16.3013 23.25 16.5002 23.25H19.5002C19.6991 23.25 19.8899 23.171 20.0305 23.0303C20.1712 22.8897 20.2502 22.6989 20.2502 22.5V18.75H22.5002C22.6991 18.75 22.8899 18.671 23.0305 18.5303C23.1712 18.3897 23.2502 18.1989 23.2502 18C23.2502 17.8011 23.1712 17.6103 23.0305 17.4697C22.8899 17.329 22.6991 17.25 22.5002 17.25Z" fill="black"/>
<path d="M22.5002 20.25C22.3013 20.25 22.1105 20.329 21.9699 20.4697C21.8292 20.6103 21.7502 20.8011 21.7502 21V22.5C21.7502 22.6989 21.8292 22.8897 21.9699 23.0303C22.1105 23.171 22.3013 23.25 22.5002 23.25C22.6991 23.25 22.8899 23.171 23.0305 23.0303C23.1712 22.8897 23.2502 22.6989 23.2502 22.5V21C23.2502 20.8011 23.1712 20.6103 23.0305 20.4697C22.8899 20.329 22.6991 20.25 22.5002 20.25Z" fill="black"/>
</svg>
