<svg width="30" height="30" viewBox="0 0 30 30" fill="none" xmlns="http://www.w3.org/2000/svg">
<rect x="0.5" y="0.5" width="29" height="29" rx="5.5" fill="white" stroke="black"/>
<path d="M18.75 17.375C18.3047 17.375 17.8937 17.5312 17.5719 17.7922L14.3344 15.45C14.3886 15.1524 14.3886 14.8476 14.3344 14.55L17.5719 12.2078C17.8937 12.4687 18.3047 12.625 18.75 12.625C19.7844 12.625 20.625 11.7844 20.625 10.75C20.625 9.71563 19.7844 8.875 18.75 8.875C17.7156 8.875 16.875 9.71563 16.875 10.75C16.875 10.9313 16.9 11.1047 16.9484 11.2703L13.8734 13.4969C13.4172 12.8922 12.6922 12.5 11.875 12.5C10.4937 12.5 9.375 13.6188 9.375 15C9.375 16.3812 10.4937 17.5 11.875 17.5C12.6922 17.5 13.4172 17.1078 13.8734 16.5031L16.9484 18.7297C16.9 18.8953 16.875 19.0703 16.875 19.25C16.875 20.2844 17.7156 21.125 18.75 21.125C19.7844 21.125 20.625 20.2844 20.625 19.25C20.625 18.2156 19.7844 17.375 18.75 17.375ZM18.75 9.9375C19.1984 9.9375 19.5625 10.3016 19.5625 10.75C19.5625 11.1984 19.1984 11.5625 18.75 11.5625C18.3016 11.5625 17.9375 11.1984 17.9375 10.75C17.9375 10.3016 18.3016 9.9375 18.75 9.9375ZM11.875 16.375C11.1172 16.375 10.5 15.7578 10.5 15C10.5 14.2422 11.1172 13.625 11.875 13.625C12.6328 13.625 13.25 14.2422 13.25 15C13.25 15.7578 12.6328 16.375 11.875 16.375ZM18.75 20.0625C18.3016 20.0625 17.9375 19.6984 17.9375 19.25C17.9375 18.8016 18.3016 18.4375 18.75 18.4375C19.1984 18.4375 19.5625 18.8016 19.5625 19.25C19.5625 19.6984 19.1984 20.0625 18.75 20.0625Z" fill="#FC7B22"/>
</svg>
