<svg width="46" height="60" viewBox="0 0 46 60" fill="none" xmlns="http://www.w3.org/2000/svg">
<path d="M14.0723 42.352L12.6883 48H11.2963L10.2403 43.904L9.17634 48H7.79234L6.40834 42.352H7.63234L8.49634 46.728L9.61634 42.352H10.8563L11.9843 46.728L12.8483 42.352H14.0723ZM16.892 43.512C17.324 43.512 17.7107 43.6027 18.052 43.784C18.3987 43.9653 18.6707 44.2293 18.868 44.576C19.0654 44.9173 19.164 45.32 19.164 45.784C19.164 46.248 19.0654 46.6507 18.868 46.992C18.6707 47.3333 18.3987 47.5973 18.052 47.784C17.7107 47.9653 17.324 48.056 16.892 48.056C16.46 48.056 16.0707 47.9653 15.724 47.784C15.3827 47.5973 15.1134 47.3333 14.916 46.992C14.7187 46.6507 14.62 46.248 14.62 45.784C14.62 45.32 14.7187 44.9173 14.916 44.576C15.1134 44.2293 15.3827 43.9653 15.724 43.784C16.0707 43.6027 16.46 43.512 16.892 43.512ZM16.892 44.488C16.5774 44.488 16.3107 44.6 16.092 44.824C15.8734 45.0427 15.764 45.3627 15.764 45.784C15.764 46.2053 15.8734 46.528 16.092 46.752C16.3107 46.9707 16.5774 47.08 16.892 47.08C17.2067 47.08 17.4734 46.9707 17.692 46.752C17.9107 46.528 18.02 46.2053 18.02 45.784C18.02 45.3627 17.9107 45.0427 17.692 44.824C17.4734 44.6 17.2067 44.488 16.892 44.488ZM25.6012 43.504C26.1399 43.504 26.5639 43.672 26.8732 44.008C27.1879 44.3387 27.3452 44.8107 27.3452 45.424V48H26.2252V45.552C26.2252 45.2107 26.1372 44.9493 25.9612 44.768C25.7906 44.5813 25.5532 44.488 25.2492 44.488C24.9346 44.488 24.6839 44.5867 24.4972 44.784C24.3106 44.9813 24.2172 45.2693 24.2172 45.648V48H23.0972V45.552C23.0972 45.2107 23.0092 44.9493 22.8332 44.768C22.6626 44.5813 22.4252 44.488 22.1212 44.488C21.8066 44.488 21.5559 44.5867 21.3692 44.784C21.1826 44.9813 21.0892 45.2693 21.0892 45.648V48H19.9612V43.568H21.0892V44.408C21.2066 44.12 21.3906 43.8987 21.6412 43.744C21.8972 43.584 22.1932 43.504 22.5292 43.504C22.8866 43.504 23.1959 43.5893 23.4572 43.76C23.7239 43.9307 23.9239 44.176 24.0572 44.496C24.1959 44.192 24.4012 43.952 24.6732 43.776C24.9506 43.5947 25.2599 43.504 25.6012 43.504ZM32.5042 45.616C32.5042 45.728 32.4909 45.856 32.4642 46H29.2162C29.2322 46.3947 29.3389 46.6853 29.5362 46.872C29.7336 47.0587 29.9789 47.152 30.2722 47.152C30.5336 47.152 30.7496 47.088 30.9202 46.96C31.0962 46.832 31.2082 46.6587 31.2562 46.44H32.4482C32.3896 46.7493 32.2642 47.0267 32.0722 47.272C31.8802 47.5173 31.6322 47.7093 31.3282 47.848C31.0296 47.9867 30.6962 48.056 30.3282 48.056C29.8962 48.056 29.5122 47.9653 29.1762 47.784C28.8402 47.5973 28.5789 47.3333 28.3922 46.992C28.2056 46.6507 28.1122 46.248 28.1122 45.784C28.1122 45.32 28.2056 44.9173 28.3922 44.576C28.5789 44.2293 28.8402 43.9653 29.1762 43.784C29.5122 43.6027 29.8962 43.512 30.3282 43.512C30.7656 43.512 31.1469 43.6027 31.4722 43.784C31.8029 43.9653 32.0562 44.216 32.2322 44.536C32.4136 44.8507 32.5042 45.2107 32.5042 45.616ZM31.3682 45.504C31.3842 45.1413 31.2882 44.8667 31.0802 44.68C30.8776 44.4933 30.6269 44.4 30.3282 44.4C30.0242 44.4 29.7682 44.4933 29.5602 44.68C29.3522 44.8667 29.2376 45.1413 29.2162 45.504H31.3682ZM35.945 43.504C36.457 43.504 36.865 43.672 37.169 44.008C37.473 44.344 37.625 44.816 37.625 45.424V48H36.505V45.552C36.505 45.2 36.4143 44.928 36.233 44.736C36.0516 44.5387 35.8036 44.44 35.489 44.44C35.169 44.44 34.913 44.544 34.721 44.752C34.529 44.96 34.433 45.2587 34.433 45.648V48H33.305V43.568H34.433V44.456C34.5503 44.1573 34.7423 43.9253 35.009 43.76C35.281 43.5893 35.593 43.504 35.945 43.504ZM1.6802 53.436V54.534H3.1802V55.182H1.6802V56.322H3.3602V57H0.834195V52.764H3.3602V53.436H1.6802ZM8.21654 53.628C8.62054 53.628 8.93854 53.754 9.17054 54.006C9.40654 54.254 9.52454 54.608 9.52454 55.068V57H8.68454V55.164C8.68454 54.908 8.61854 54.712 8.48654 54.576C8.35854 54.436 8.18054 54.366 7.95254 54.366C7.71654 54.366 7.52854 54.44 7.38854 54.588C7.24854 54.736 7.17854 54.952 7.17854 55.236V57H6.33854V55.164C6.33854 54.908 6.27254 54.712 6.14054 54.576C6.01254 54.436 5.83454 54.366 5.60654 54.366C5.37054 54.366 5.18254 54.44 5.04254 54.588C4.90254 54.736 4.83254 54.952 4.83254 55.236V57H3.98654V53.676H4.83254V54.306C4.92054 54.09 5.05854 53.924 5.24654 53.808C5.43854 53.688 5.66054 53.628 5.91254 53.628C6.18054 53.628 6.41254 53.692 6.60854 53.82C6.80854 53.948 6.95854 54.132 7.05854 54.372C7.16254 54.144 7.31654 53.964 7.52054 53.832C7.72854 53.696 7.96054 53.628 8.21654 53.628ZM12.2538 53.634C12.5338 53.634 12.7858 53.702 13.0098 53.838C13.2338 53.974 13.4078 54.172 13.5318 54.432C13.6598 54.688 13.7238 54.99 13.7238 55.338C13.7238 55.686 13.6598 55.99 13.5318 56.25C13.4078 56.506 13.2338 56.702 13.0098 56.838C12.7858 56.974 12.5338 57.042 12.2538 57.042C11.9738 57.042 11.7338 56.976 11.5338 56.844C11.3378 56.708 11.1978 56.528 11.1138 56.304V58.584H10.2678V53.676H11.1138V54.366C11.1978 54.142 11.3378 53.964 11.5338 53.832C11.7338 53.7 11.9738 53.634 12.2538 53.634ZM11.9898 54.372C11.7338 54.372 11.5218 54.46 11.3538 54.636C11.1898 54.808 11.1078 55.042 11.1078 55.338C11.1078 55.63 11.1898 55.864 11.3538 56.04C11.5218 56.212 11.7338 56.298 11.9898 56.298C12.2538 56.298 12.4658 56.214 12.6258 56.046C12.7858 55.874 12.8658 55.638 12.8658 55.338C12.8658 55.038 12.7858 54.802 12.6258 54.63C12.4658 54.458 12.2538 54.372 11.9898 54.372ZM15.8585 53.634C16.1825 53.634 16.4725 53.702 16.7285 53.838C16.9885 53.974 17.1925 54.172 17.3405 54.432C17.4885 54.688 17.5625 54.99 17.5625 55.338C17.5625 55.686 17.4885 55.988 17.3405 56.244C17.1925 56.5 16.9885 56.698 16.7285 56.838C16.4725 56.974 16.1825 57.042 15.8585 57.042C15.5345 57.042 15.2425 56.974 14.9825 56.838C14.7265 56.698 14.5245 56.5 14.3765 56.244C14.2285 55.988 14.1545 55.686 14.1545 55.338C14.1545 54.99 14.2285 54.688 14.3765 54.432C14.5245 54.172 14.7265 53.974 14.9825 53.838C15.2425 53.702 15.5345 53.634 15.8585 53.634ZM15.8585 54.366C15.6225 54.366 15.4225 54.45 15.2585 54.618C15.0945 54.782 15.0125 55.022 15.0125 55.338C15.0125 55.654 15.0945 55.896 15.2585 56.064C15.4225 56.228 15.6225 56.31 15.8585 56.31C16.0945 56.31 16.2945 56.228 16.4585 56.064C16.6225 55.896 16.7045 55.654 16.7045 55.338C16.7045 55.022 16.6225 54.782 16.4585 54.618C16.2945 54.45 16.0945 54.366 15.8585 54.366ZM22.9184 53.676L22.0244 57H21.0884L20.3744 54.582L19.6424 57H18.7064L17.8184 53.676H18.6644L19.2044 56.244L19.9424 53.676H20.8364L21.5804 56.244L22.1264 53.676H22.9184ZM26.4661 55.212C26.4661 55.296 26.4561 55.392 26.4361 55.5H24.0001C24.0121 55.796 24.0921 56.014 24.2401 56.154C24.3881 56.294 24.5721 56.364 24.7921 56.364C24.9881 56.364 25.1501 56.316 25.2781 56.22C25.4101 56.124 25.4941 55.994 25.5301 55.83H26.4241C26.3801 56.062 26.2861 56.27 26.1421 56.454C25.9981 56.638 25.8121 56.782 25.5841 56.886C25.3601 56.99 25.1101 57.042 24.8341 57.042C24.5101 57.042 24.2221 56.974 23.9701 56.838C23.7181 56.698 23.5221 56.5 23.3821 56.244C23.2421 55.988 23.1721 55.686 23.1721 55.338C23.1721 54.99 23.2421 54.688 23.3821 54.432C23.5221 54.172 23.7181 53.974 23.9701 53.838C24.2221 53.702 24.5101 53.634 24.8341 53.634C25.1621 53.634 25.4481 53.702 25.6921 53.838C25.9401 53.974 26.1301 54.162 26.2621 54.402C26.3981 54.638 26.4661 54.908 26.4661 55.212ZM25.6141 55.128C25.6261 54.856 25.5541 54.65 25.3981 54.51C25.2461 54.37 25.0581 54.3 24.8341 54.3C24.6061 54.3 24.4141 54.37 24.2581 54.51C24.1021 54.65 24.0161 54.856 24.0001 55.128H25.6141ZM27.9126 54.312C28.0366 54.1 28.2006 53.934 28.4046 53.814C28.6086 53.69 28.8366 53.628 29.0886 53.628V54.534H28.8426C28.2226 54.534 27.9126 54.822 27.9126 55.398V57H27.0666V53.676H27.9126V54.312ZM33.7869 53.628C34.1909 53.628 34.5089 53.754 34.7409 54.006C34.9769 54.254 35.0949 54.608 35.0949 55.068V57H34.2549V55.164C34.2549 54.908 34.1889 54.712 34.0569 54.576C33.9289 54.436 33.7509 54.366 33.5229 54.366C33.2869 54.366 33.0989 54.44 32.9589 54.588C32.8189 54.736 32.7489 54.952 32.7489 55.236V57H31.9089V55.164C31.9089 54.908 31.8429 54.712 31.7109 54.576C31.5829 54.436 31.4049 54.366 31.1769 54.366C30.9409 54.366 30.7529 54.44 30.6129 54.588C30.4729 54.736 30.4029 54.952 30.4029 55.236V57H29.5569V53.676H30.4029V54.306C30.4909 54.09 30.6289 53.924 30.8169 53.808C31.0089 53.688 31.2309 53.628 31.4829 53.628C31.7509 53.628 31.9829 53.692 32.1789 53.82C32.3789 53.948 32.5289 54.132 32.6289 54.372C32.7329 54.144 32.8869 53.964 33.0909 53.832C33.2989 53.696 33.5309 53.628 33.7869 53.628ZM38.9641 55.212C38.9641 55.296 38.9541 55.392 38.9341 55.5H36.4981C36.5101 55.796 36.5901 56.014 36.7381 56.154C36.8861 56.294 37.0701 56.364 37.2901 56.364C37.4861 56.364 37.6481 56.316 37.7761 56.22C37.9081 56.124 37.9921 55.994 38.0281 55.83H38.9221C38.8781 56.062 38.7841 56.27 38.6401 56.454C38.4961 56.638 38.3101 56.782 38.0821 56.886C37.8581 56.99 37.6081 57.042 37.3321 57.042C37.0081 57.042 36.7201 56.974 36.4681 56.838C36.2161 56.698 36.0201 56.5 35.8801 56.244C35.7401 55.988 35.6701 55.686 35.6701 55.338C35.6701 54.99 35.7401 54.688 35.8801 54.432C36.0201 54.172 36.2161 53.974 36.4681 53.838C36.7201 53.702 37.0081 53.634 37.3321 53.634C37.6601 53.634 37.9461 53.702 38.1901 53.838C38.4381 53.974 38.6281 54.162 38.7601 54.402C38.8961 54.638 38.9641 54.908 38.9641 55.212ZM38.1121 55.128C38.1241 54.856 38.0521 54.65 37.8961 54.51C37.7441 54.37 37.5561 54.3 37.3321 54.3C37.1041 54.3 36.9121 54.37 36.7561 54.51C36.6001 54.65 36.5141 54.856 36.4981 55.128H38.1121ZM41.5447 53.628C41.9287 53.628 42.2347 53.754 42.4627 54.006C42.6907 54.258 42.8047 54.612 42.8047 55.068V57H41.9647V55.164C41.9647 54.9 41.8967 54.696 41.7607 54.552C41.6247 54.404 41.4387 54.33 41.2027 54.33C40.9627 54.33 40.7707 54.408 40.6267 54.564C40.4827 54.72 40.4107 54.944 40.4107 55.236V57H39.5647V53.676H40.4107V54.342C40.4987 54.118 40.6427 53.944 40.8427 53.82C41.0467 53.692 41.2807 53.628 41.5447 53.628ZM45.325 56.274V57H44.881C44.509 57 44.223 56.91 44.023 56.73C43.827 56.55 43.729 56.25 43.729 55.83V54.39H43.267V53.676H43.729V52.854H44.575V53.676H45.319V54.39H44.575V55.842C44.575 56.002 44.607 56.114 44.671 56.178C44.735 56.242 44.843 56.274 44.995 56.274H45.325Z" fill="black"/>
<path d="M23 3C18.0365 3 14 7.0365 14 12C14 16.4505 17.2505 20.148 21.5 20.865V25.5H17V28.5H21.5V32.982H24.5V28.5H29V25.5H24.5V20.865C28.7495 20.1465 32 16.4505 32 12C32 7.0365 27.9635 3 23 3ZM23 18C19.691 18 17 15.309 17 12C17 8.691 19.691 6 23 6C26.309 6 29 8.691 29 12C29 15.309 26.309 18 23 18Z" fill="#A41BE4"/>
</svg>
